<svg xmlns="http://www.w3.org/2000/svg" viewBox="0 0 100 100">
  <g transform="translate(50,50)">
    <!-- 18 rounded rectangular rays radiating from center -->
    <rect x="-5" y="-42" width="10" height="22" rx="4" fill="#7C3AED" transform="rotate(0)"/>
    <rect x="-5" y="-42" width="10" height="22" rx="4" fill="#7C3AED" transform="rotate(20)"/>
    <rect x="-5" y="-42" width="10" height="22" rx="4" fill="#7C3AED" transform="rotate(40)"/>
    <rect x="-5" y="-42" width="10" height="22" rx="4" fill="#7C3AED" transform="rotate(60)"/>
    <rect x="-5" y="-42" width="10" height="22" rx="4" fill="#7C3AED" transform="rotate(80)"/>
    <rect x="-5" y="-42" width="10" height="22" rx="4" fill="#7C3AED" transform="rotate(100)"/>
    <rect x="-5" y="-42" width="10" height="22" rx="4" fill="#7C3AED" transform="rotate(120)"/>
    <rect x="-5" y="-42" width="10" height="22" rx="4" fill="#7C3AED" transform="rotate(140)"/>
    <rect x="-5" y="-42" width="10" height="22" rx="4" fill="#7C3AED" transform="rotate(160)"/>
    <rect x="-5" y="-42" width="10" height="22" rx="4" fill="#7C3AED" transform="rotate(180)"/>
    <rect x="-5" y="-42" width="10" height="22" rx="4" fill="#7C3AED" transform="rotate(200)"/>
    <rect x="-5" y="-42" width="10" height="22" rx="4" fill="#7C3AED" transform="rotate(220)"/>
    <rect x="-5" y="-42" width="10" height="22" rx="4" fill="#7C3AED" transform="rotate(240)"/>
    <rect x="-5" y="-42" width="10" height="22" rx="4" fill="#7C3AED" transform="rotate(260)"/>
    <rect x="-5" y="-42" width="10" height="22" rx="4" fill="#7C3AED" transform="rotate(280)"/>
    <rect x="-5" y="-42" width="10" height="22" rx="4" fill="#7C3AED" transform="rotate(300)"/>
    <rect x="-5" y="-42" width="10" height="22" rx="4" fill="#7C3AED" transform="rotate(320)"/>
    <rect x="-5" y="-42" width="10" height="22" rx="4" fill="#7C3AED" transform="rotate(340)"/>
    <!-- Center circle -->
    <circle cx="0" cy="0" r="22" fill="#7C3AED"/>
  </g>
</svg>
